<svg width="420" height="322" viewBox="0 0 420 322" fill="none" xmlns="http://www.w3.org/2000/svg">
<g clip-path="url(#clip0)">
<path d="M9.58983 115.948C4.29336 117.513 1.2684 123.076 2.8334 128.372L60.0467 322H308.585L318.114 319.184L240.944 58.0151C239.379 52.7186 233.817 49.6936 228.52 51.2586L9.58983 115.948Z" fill="#69A7E0"/>
<path d="M42.7448 53.5979C37.2695 54.3209 33.417 59.3456 34.1399 64.8209L68.0984 322H371.017L331.868 25.5083C331.145 20.033 326.12 16.1804 320.645 16.9034L42.7448 53.5979Z" fill="#5420AA"/>
<path d="M83.0479 0C77.525 0 73.0479 4.47716 73.0479 10V322H420.231V10C420.231 4.47715 415.754 0 410.231 0H83.0479Z" fill="white"/>
<rect x="103" y="122" width="74" height="5" fill="#EEEEEE"/>
<rect x="187" y="122" width="74" height="5" fill="#EEEEEE"/>
<rect x="271" y="122" width="59" height="5" fill="#EEEEEE"/>
<rect x="102.82" y="85.4532" width="116.549" height="11.4907" fill="#EEEEEE"/>
<rect x="102.82" y="253.559" width="116.549" height="11.4907" fill="#EEEEEE"/>
<rect x="103" y="153" width="98" height="5" fill="#EEEEEE"/>
<rect x="210" y="153" width="61" height="5" fill="#EEEEEE"/>
<rect x="280" y="153" width="75" height="5" fill="#EEEEEE"/>
<rect x="157" y="213" width="98" height="5" fill="#EEEEEE"/>
<rect x="264" y="213" width="61" height="5" fill="#EEEEEE"/>
<rect x="103" y="183" width="126" height="5" fill="#EEEEEE"/>
<rect x="103" y="213" width="47" height="5" fill="#EEEEEE"/>
<rect x="103" y="290" width="71" height="5" fill="#EEEEEE"/>
<rect x="183" y="290" width="93" height="5" fill="#EEEEEE"/>
<rect x="285" y="290" width="87" height="5" fill="#EEEEEE"/>
<g opacity="0.8">
<path d="M136.354 39.2477C136.34 39.3134 136.307 39.3725 136.253 39.425C136.213 39.4644 136.159 39.4841 136.092 39.4841H134.102C134.035 39.4841 134.001 39.5169 134.001 39.5826L133.398 44.3299C133.385 44.4087 133.378 44.5203 133.378 44.6648C133.378 45.0456 133.472 45.3214 133.66 45.4921C133.861 45.6628 134.162 45.7482 134.564 45.7482H135.147C135.295 45.7482 135.369 45.827 135.369 45.9846L135.168 47.462C135.141 47.6195 135.054 47.7049 134.906 47.718L133.901 47.7377C132.963 47.7377 132.259 47.5998 131.79 47.3241C131.321 47.0352 131.086 46.5033 131.086 45.7285C131.086 45.6366 131.1 45.4593 131.127 45.1966L131.83 39.5826C131.83 39.5169 131.803 39.4841 131.75 39.4841H130.644C130.497 39.4841 130.423 39.4053 130.423 39.2477L130.604 37.8689C130.617 37.8032 130.644 37.7507 130.684 37.7113C130.738 37.6587 130.798 37.6325 130.865 37.6325H131.971C132.025 37.6325 132.065 37.5996 132.092 37.534L132.373 35.2293C132.386 35.1636 132.413 35.1111 132.453 35.0717C132.507 35.0192 132.567 34.9929 132.634 34.9929H134.343C134.41 34.9929 134.464 35.0192 134.504 35.0717C134.544 35.1111 134.558 35.1636 134.544 35.2293L134.263 37.534C134.236 37.5996 134.263 37.6325 134.343 37.6325H136.334C136.401 37.6325 136.454 37.6587 136.494 37.7113C136.535 37.7507 136.548 37.8032 136.535 37.8689L136.354 39.2477Z" fill="#232E49"/>
<path d="M144.664 37.8689C144.677 37.8032 144.711 37.7507 144.764 37.7113C144.818 37.6587 144.878 37.6325 144.945 37.6325H146.735C146.802 37.6325 146.855 37.6587 146.896 37.7113C146.936 37.7507 146.949 37.8032 146.936 37.8689L145.729 47.462C145.716 47.5276 145.683 47.5867 145.629 47.6392C145.589 47.6786 145.535 47.6983 145.468 47.6983H143.679C143.612 47.6983 143.558 47.6786 143.518 47.6392C143.478 47.5867 143.464 47.5276 143.478 47.462L143.578 46.5361C143.592 46.4836 143.585 46.4573 143.558 46.4573C143.531 46.4442 143.505 46.4573 143.478 46.4967C142.834 47.4029 141.936 47.8559 140.784 47.8559C139.913 47.8559 139.182 47.5998 138.592 47.0877C138.016 46.5624 137.668 45.8598 137.547 44.98C137.507 44.7436 137.487 44.4941 137.487 44.2314C137.487 43.8637 137.534 43.3384 137.627 42.6556C137.761 41.5918 137.962 40.7514 138.23 40.1342C138.579 39.3462 139.102 38.7093 139.799 38.2234C140.496 37.7244 141.293 37.4749 142.191 37.4749C143.29 37.4749 144.041 37.8951 144.443 38.7356C144.47 38.775 144.496 38.7947 144.523 38.7947C144.55 38.7815 144.563 38.7487 144.563 38.6962L144.664 37.8689ZM143.659 44.4678C143.753 44.2708 143.826 44.0541 143.88 43.8178C143.947 43.5682 144.014 43.1874 144.081 42.6753C144.148 42.058 144.181 41.6641 144.181 41.4933C144.181 41.2701 144.148 41.0469 144.081 40.8236C144.041 40.4296 143.873 40.1013 143.578 39.8387C143.297 39.576 142.928 39.4447 142.473 39.4447C141.99 39.4447 141.561 39.576 141.186 39.8387C140.824 40.1013 140.563 40.4428 140.402 40.863C140.308 41.06 140.228 41.2832 140.161 41.5327C140.107 41.7691 140.047 42.1434 139.98 42.6556C139.913 43.1152 139.879 43.5157 139.879 43.8572C139.879 44.0673 139.899 44.2708 139.939 44.4678C139.993 44.888 140.174 45.2295 140.482 45.4921C140.79 45.7548 141.186 45.8861 141.668 45.8861C142.137 45.8861 142.54 45.7548 142.875 45.4921C143.223 45.2295 143.484 44.888 143.659 44.4678Z" fill="#232E49"/>
<path d="M155.461 37.8689C155.461 37.8032 155.488 37.7507 155.541 37.7113C155.595 37.6587 155.655 37.6325 155.722 37.6325H157.511C157.578 37.6325 157.632 37.6587 157.672 37.7113C157.713 37.7507 157.726 37.8032 157.713 37.8689L156.567 47.0286C156.366 48.6701 155.756 49.8389 154.737 50.5349C153.718 51.244 152.459 51.5986 150.957 51.5986C150.569 51.5986 150.173 51.5789 149.771 51.5395C149.637 51.5264 149.57 51.441 149.57 51.2834L149.832 49.6682C149.845 49.5237 149.945 49.4515 150.133 49.4515C150.495 49.4909 150.83 49.5106 151.138 49.5106C152.117 49.5106 152.861 49.3136 153.37 48.9196C153.879 48.5257 154.194 47.8756 154.315 46.9695L154.335 46.8119C154.335 46.72 154.295 46.7068 154.214 46.7725C153.625 47.3503 152.834 47.6392 151.842 47.6392C151.011 47.6392 150.267 47.4226 149.61 46.9892C148.967 46.5558 148.565 45.8926 148.404 44.9997C148.364 44.7239 148.344 44.4284 148.344 44.1132C148.344 43.6799 148.377 43.1808 148.444 42.6162C148.592 41.513 148.8 40.6792 149.068 40.1145C149.429 39.3134 149.959 38.6765 150.656 38.2037C151.353 37.7178 152.13 37.4749 152.988 37.4749C154.007 37.4749 154.771 37.7769 155.28 38.381C155.293 38.4204 155.313 38.4335 155.34 38.4204C155.367 38.4073 155.387 38.381 155.401 38.3416L155.461 37.8689ZM154.496 44.3496C154.576 44.1526 154.643 43.9425 154.697 43.7193C154.75 43.4829 154.804 43.1086 154.858 42.5965C154.925 42.1237 154.958 41.7297 154.958 41.4146C154.958 41.2964 154.945 41.1191 154.918 40.8827C154.878 40.4493 154.71 40.1013 154.415 39.8387C154.121 39.576 153.732 39.4447 153.249 39.4447C152.767 39.4447 152.345 39.576 151.983 39.8387C151.634 40.1013 151.366 40.4493 151.179 40.8827C150.991 41.2373 150.837 41.8151 150.716 42.6162C150.663 43.0233 150.636 43.3975 150.636 43.739C150.636 43.9885 150.656 44.1855 150.696 44.3299C150.776 44.7501 150.971 45.0981 151.279 45.3739C151.587 45.6366 151.983 45.7679 152.465 45.7679C152.975 45.7679 153.403 45.6366 153.752 45.3739C154.1 45.1113 154.348 44.7698 154.496 44.3496Z" fill="#232E49"/>
<path d="M161.537 36.2536C161.162 36.2536 160.86 36.142 160.632 35.9187C160.418 35.6955 160.311 35.4066 160.311 35.052C160.311 34.5924 160.465 34.2115 160.773 33.9095C161.081 33.6074 161.457 33.4564 161.899 33.4564C162.261 33.4564 162.556 33.568 162.783 33.7913C163.011 34.0014 163.125 34.2903 163.125 34.658C163.125 35.1045 162.971 35.4854 162.663 35.8005C162.355 36.1026 161.979 36.2536 161.537 36.2536ZM159.165 47.6983C159.098 47.6983 159.044 47.6786 159.004 47.6392C158.964 47.5867 158.95 47.5276 158.964 47.462L160.17 37.8492C160.183 37.7835 160.21 37.731 160.25 37.6916C160.304 37.639 160.364 37.6128 160.431 37.6128H162.22C162.288 37.6128 162.341 37.639 162.381 37.6916C162.422 37.731 162.435 37.7835 162.422 37.8492L161.235 47.462C161.222 47.5276 161.188 47.5867 161.135 47.6392C161.081 47.6786 161.021 47.6983 160.954 47.6983H159.165Z" fill="#232E49"/>
<path d="M167.992 47.8559C166.973 47.8559 166.129 47.5933 165.459 47.068C164.789 46.5427 164.36 45.8139 164.172 44.8815C164.105 44.4875 164.072 44.0804 164.072 43.6602C164.072 43.3056 164.092 42.9642 164.132 42.6359C164.239 41.8085 164.433 41.06 164.715 40.3902C165.144 39.471 165.754 38.7553 166.544 38.2431C167.349 37.731 168.273 37.4749 169.319 37.4749C170.311 37.4749 171.135 37.731 171.792 38.2431C172.448 38.7553 172.871 39.4644 173.058 40.3705C173.139 40.7382 173.179 41.1585 173.179 41.6312C173.179 41.9464 173.159 42.2747 173.119 42.6162C173.025 43.4172 172.824 44.1658 172.515 44.8618C172.1 45.7942 171.49 46.5296 170.686 47.068C169.895 47.5933 168.997 47.8559 167.992 47.8559ZM168.253 45.8861C168.722 45.8861 169.145 45.7482 169.52 45.4724C169.909 45.1966 170.21 44.8092 170.425 44.3102C170.626 43.8506 170.76 43.299 170.827 42.6556C170.88 42.1565 170.907 41.8151 170.907 41.6312C170.907 41.3817 170.887 41.1716 170.847 41.0009C170.766 40.5019 170.565 40.121 170.244 39.8584C169.922 39.5826 169.513 39.4447 169.017 39.4447C168.535 39.4447 168.099 39.5826 167.71 39.8584C167.335 40.121 167.034 40.5019 166.806 41.0009C166.618 41.4999 166.484 42.0515 166.404 42.6556C166.363 42.9839 166.343 43.3056 166.343 43.6208C166.343 43.8178 166.357 44.0476 166.384 44.3102C166.477 44.8092 166.685 45.1966 167.007 45.4724C167.328 45.7482 167.744 45.8861 168.253 45.8861Z" fill="#232E49"/>
<path d="M180.699 37.4749C181.65 37.4749 182.401 37.7375 182.95 38.2628C183.5 38.7881 183.775 39.5104 183.775 40.4296C183.775 40.5478 183.761 40.7382 183.735 41.0009L182.93 47.462C182.917 47.5276 182.883 47.5867 182.83 47.6392C182.776 47.6786 182.716 47.6983 182.649 47.6983H180.86C180.793 47.6983 180.739 47.6786 180.699 47.6392C180.659 47.5867 180.645 47.5276 180.659 47.462L181.402 41.4737C181.416 41.3949 181.422 41.2767 181.422 41.1191C181.422 40.6069 181.275 40.1998 180.98 39.8978C180.699 39.5957 180.31 39.4447 179.814 39.4447C179.265 39.4447 178.789 39.6286 178.387 39.9963C177.998 40.364 177.763 40.8499 177.683 41.454L176.939 47.462C176.926 47.5276 176.892 47.5867 176.839 47.6392C176.798 47.6786 176.745 47.6983 176.678 47.6983H174.868C174.801 47.6983 174.748 47.6786 174.708 47.6392C174.667 47.5867 174.654 47.5276 174.667 47.462L175.874 37.8689C175.887 37.8032 175.914 37.7507 175.954 37.7113C176.008 37.6587 176.068 37.6325 176.135 37.6325H177.924C178.072 37.6325 178.145 37.7113 178.145 37.8689L178.065 38.4992C178.052 38.5386 178.058 38.5649 178.085 38.578C178.112 38.5911 178.139 38.578 178.166 38.5386C178.769 37.8295 179.613 37.4749 180.699 37.4749Z" fill="#232E49"/>
<path fill-rule="evenodd" clip-rule="evenodd" d="M113.08 30.134C106.961 30.134 102 35.0948 102 41.2143C102 47.3338 106.961 52.2946 113.08 52.2946H113.537C119.657 52.2946 124.618 47.3338 124.618 41.2143C124.618 35.0948 119.657 30.134 113.537 30.134H113.08ZM111.525 37.6423C113.466 37.6372 115.479 37.6347 115.573 37.6347C116.271 37.6347 116.794 37.7363 117.143 37.9394C117.482 38.1518 117.652 38.5351 117.652 39.0892C117.652 39.1631 117.643 39.2832 117.624 39.4494L117.399 41.3228C117.385 41.4319 117.291 41.5139 117.179 41.5139H115.759C115.538 41.5139 115.519 41.4392 115.538 41.2697L115.658 40.2252C115.667 40.1697 115.672 40.0959 115.672 40.0035C115.672 39.551 115.446 39.3247 114.993 39.3247H107.885C107.838 39.3247 107.81 39.3066 107.772 39.2693C107.734 39.232 107.73 39.2063 107.73 39.1585L107.905 37.8605C107.905 37.8485 107.906 37.8365 107.909 37.8247C107.931 37.7252 107.991 37.6711 108.089 37.6624C108.197 37.6571 108.684 37.6525 109.577 37.6488C109.6 37.6487 109.622 37.6349 109.622 37.612L109.834 35.9635C109.844 35.9173 109.863 35.8804 109.891 35.8527C109.929 35.8157 109.971 35.7972 110.018 35.7972H111.56C111.602 35.7972 111.636 35.8117 111.663 35.8407C111.67 35.8483 111.677 35.8561 111.683 35.8643C111.703 35.8904 111.709 35.9235 111.701 35.9635L111.489 37.612C111.489 37.6304 111.506 37.6424 111.525 37.6423ZM110.808 41.0004C111.022 41.0004 111.05 41.0852 111.029 41.2445L110.909 42.2527C110.9 42.3081 110.895 42.382 110.895 42.4743C110.895 42.9269 111.121 43.1531 111.574 43.1531H118.682C118.729 43.1531 118.757 43.1713 118.795 43.2085C118.833 43.2458 118.838 43.2715 118.838 43.3194L118.667 44.6174C118.667 44.6294 118.667 44.6414 118.664 44.6531C118.642 44.7526 118.582 44.8067 118.484 44.8155C118.375 44.8208 117.884 44.8253 116.99 44.8291C116.967 44.8292 116.945 44.843 116.945 44.8659L116.733 46.5144C116.723 46.5605 116.705 46.5975 116.676 46.6252C116.639 46.6621 116.596 46.6806 116.549 46.6806H115.008C114.966 46.6806 114.931 46.6661 114.904 46.6371C114.897 46.6295 114.89 46.6218 114.884 46.6135C114.864 46.5874 114.858 46.5543 114.866 46.5144L115.078 44.8659C115.078 44.8474 115.061 44.8354 115.042 44.8355C113.102 44.8406 111.088 44.8432 110.994 44.8432C110.296 44.8432 109.773 44.7416 109.424 44.5384C109.085 44.326 108.915 43.9427 108.915 43.3886C108.915 43.3147 108.925 43.1947 108.943 43.0284L109.168 41.1914C109.182 41.0823 109.277 41.0004 109.389 41.0004H110.808Z" fill="#232E49"/>
</g>
</g>
<defs>
<clipPath id="clip0">
<rect width="420" height="322" fill="white"/>
</clipPath>
</defs>
</svg>
