<svg width="61" height="32" viewBox="0 0 61 32" fill="none" xmlns="http://www.w3.org/2000/svg">
<path d="M9.88 5.22003H9.67999C9.27999 2.99003 7.63001 0.830017 5.49001 0.830017C4.42001 0.830017 3.66 1.45 3.66 2.56C3.66 5.9 11.07 5.78002 11.07 10.71C11.07 13.73 8.31 15.48 5.33 15.48C3.16 15.48 2.91 14.88 0.220001 14.88L0.0200043 9.83002H0.220001C0.880001 13.01 2.7 15.28 5.11 15.28C6.78 15.28 7.53 14.35 7.53 13.27C7.53 10.09 0 9.68998 0 4.97998C0 2.33998 1.99 0.630005 5.58 0.630005C6.99 0.630005 8.37999 1.04999 10.07 1.04999L9.88 5.22003Z" fill="white"/>
<path d="M22.32 13.33C22.32 14.38 22.66 14.64 23.09 14.64C23.29 14.64 23.53 14.5 23.67 14.32L23.75 14.38C23.37 15.04 22.36 15.45 21.15 15.45C20.08 15.45 19.08 15.17 18.53 14.32C17.62 14.56 16.54 15.51 14.79 15.51C13.34 15.51 12.07 14.87 12.07 13.34C12.07 11.29 14.22 10.06 18.13 10.06C18.13 10.06 18.25 8.69003 18.25 7.16003C18.25 5.77003 17.95 5.21002 17.2 5.21002C16.45 5.21002 16.07 5.87001 16.07 6.70001C16.07 7.45001 16.27 7.95001 16.65 8.51001C16.11 8.93001 15.16 9.21002 14.52 9.21002C13.43 9.21002 12.73 8.58999 12.73 7.67999C12.73 5.98999 15.47 5.03998 17.92 5.03998C21.38 5.03998 22.51 6.33003 22.51 9.09003C22.52 10.99 22.32 11.92 22.32 13.33ZM18.06 11.86C18.06 10.77 18.14 10.23 18.14 10.23C17.03 10.45 16.57 11.62 16.57 12.93C16.57 13.86 16.85 14.44 17.48 14.44C17.82 14.44 18.08 14.3 18.49 14.16C18.48 14.15 18.06 13.61 18.06 11.86Z" fill="white"/>
<path d="M29.81 7.04999V14.07C29.81 14.71 30.19 14.92 30.88 14.92V15.1C30.88 15.1 29.63 15.04 27.6 15.04C25.59 15.04 24.2 15.1 24.2 15.1V14.92C24.98 14.92 25.35 14.38 25.35 13.51V7.25C25.35 6.47 25.01 6.17999 24.28 6.17999L24.2 6.02002C27.26 6.02002 29.82 5.03003 29.82 5.03003V6.85999C30.79 6.51999 31.29 5.03003 32.86 5.03003C34.01 5.03003 34.77 5.90002 34.77 6.96002C34.77 8.05002 34.07 9.09003 32.72 9.09003C32.26 9.09003 31.67 8.91 31.41 8.69C31.51 8.49 31.65 8.13001 31.65 7.76001C31.65 7.24001 31.39 6.83002 30.8 6.83002C30.41 6.85002 30.13 6.98999 29.81 7.04999Z" fill="white"/>
<path d="M45.71 13.33C45.71 14.38 46.05 14.64 46.48 14.64C46.68 14.64 46.92 14.5 47.06 14.32L47.14 14.38C46.76 15.04 45.75 15.45 44.54 15.45C43.47 15.45 42.47 15.17 41.92 14.32C41.01 14.56 39.93 15.51 38.18 15.51C36.73 15.51 35.46 14.87 35.46 13.34C35.46 11.29 37.61 10.06 41.52 10.06C41.52 10.06 41.64 8.69003 41.64 7.16003C41.64 5.77003 41.34 5.21002 40.59 5.21002C39.84 5.21002 39.46 5.87001 39.46 6.70001C39.46 7.45001 39.66 7.95001 40.04 8.51001C39.5 8.93001 38.55 9.21002 37.91 9.21002C36.82 9.21002 36.12 8.58999 36.12 7.67999C36.12 5.98999 38.86 5.03998 41.31 5.03998C44.77 5.03998 45.9 6.33003 45.9 9.09003C45.91 10.99 45.71 11.92 45.71 13.33ZM41.44 11.86C41.44 10.77 41.52 10.23 41.52 10.23C40.41 10.45 39.95 11.62 39.95 12.93C39.95 13.86 40.23 14.44 40.86 14.44C41.2 14.44 41.46 14.3 41.87 14.16C41.87 14.15 41.44 13.61 41.44 11.86Z" fill="white"/>
<path d="M53.98 15.1C53.98 15.1 52.93 15.04 50.96 15.04C48.97 15.04 47.58 15.1 47.58 15.1V14.92C48.36 14.92 48.73 14.38 48.73 13.51V2.22003C48.73 1.43003 48.39 1.19 47.66 1.19L47.58 1.01001C50.64 1.01001 53.2 0 53.2 0V6.59998C54.45 6.17998 55.55 5.03003 57.14 5.03003C58.73 5.03003 59.68 6.02 59.68 7.87V13.85C59.68 14.76 60 14.92 60.79 14.92V15.1C60.79 15.1 59.38 15.04 57.43 15.04C55.48 15.04 54.45 15.1 54.45 15.1V14.92C54.99 14.92 55.21 14.66 55.21 13.97V7.34998C55.21 6.76998 54.87 6.47003 54.47 6.47003C54.01 6.47003 53.77 6.65002 53.2 6.77002V14.16C53.2 14.76 53.54 14.93 53.98 14.93V15.1V15.1Z" fill="white"/>
<path d="M11.03 16.52L15.4 29.44C15.74 30.45 16.33 30.83 16.99 30.83V31.03C16.99 31.03 15.88 30.97 13.11 30.97C10.41 30.97 9.34999 31.03 9.34999 31.03V30.83C10.2 30.83 10.46 30.41 10.46 29.84C10.46 29.42 10.3 28.91 10.12 28.27L9.23 25.27H5.16L4.25 28.07C4.05 28.71 3.95 29.22 3.95 29.52C3.95 30.55 4.56999 30.83 5.75999 30.83V31.03C5.75999 31.03 4.66999 30.97 3.31999 30.97C2.28999 30.97 1.47 31.03 1.47 31.03V30.83C2.56 30.83 3.40001 29.76 3.99001 28.03L7.56999 17.56L11.03 16.52ZM9.16 25.04L7.33 18.92L5.24001 25.04H9.16Z" fill="white"/>
<path d="M31.42 23.29C31.42 22.71 31.18 22.41 30.68 22.41C30.36 22.41 29.73 22.77 29.45 22.83C29.49 22.99 29.51 23.21 29.51 23.47V30.09C29.51 30.69 29.85 30.86 30.27 30.86V31.04C30.27 31.04 29.28 30.98 27.29 30.98C25.32 30.98 24.29 31.04 24.29 31.04V30.86C24.83 30.86 25.04 30.6 25.04 29.91V23.29C25.04 22.71 24.72 22.41 24.32 22.41C23.94 22.41 23.68 22.55 23.15 22.71V30.1C23.15 30.7 23.49 30.87 23.93 30.87V31.05C23.93 31.05 22.96 30.99 20.93 30.99C18.92 30.99 17.53 31.05 17.53 31.05V30.87C18.31 30.87 18.68 30.33 18.68 29.46V23.2C18.68 22.42 18.34 22.13 17.61 22.13L17.53 21.97C20.59 21.97 23.15 20.98 23.15 20.98V22.55C24.34 22.11 25.4 20.98 26.97 20.98C28.26 20.98 29.1 21.69 29.41 22.67C30.78 22.23 31.54 20.98 33.35 20.98C34.94 20.98 35.89 21.97 35.89 23.82V29.8C35.89 30.71 36.21 30.87 37 30.87V31.05C37 31.05 35.65 30.99 33.66 30.99C31.81 30.99 30.66 31.05 30.66 31.05V30.87C31.22 30.87 31.42 30.61 31.42 29.92V23.29Z" fill="white"/>
<path d="M50.3 25.52C50.3 28.92 47.86 31.44 43.98 31.44C42.65 31.44 41.46 31.06 40.5 30.45L38.31 31.17L38.23 31.03C38.75 30.53 38.81 29.7 38.81 28.76V18.15C38.81 17.36 38.47 17.12 37.74 17.12L37.66 16.94C40.72 16.94 43.28 15.93 43.28 15.93V22.53C44.25 22.03 45.03 20.96 46.58 20.96C48.81 20.97 50.3 22.98 50.3 25.52ZM43.27 22.7V29.2C43.27 30.59 43.67 31.27 44.28 31.27C45.04 31.27 45.55 30 45.55 26.36C45.55 23.04 44.87 22.23 44.32 22.23C43.96 22.24 43.76 22.48 43.27 22.7Z" fill="white"/>
<path d="M59.66 24.49H59.48C59.18 22.92 58.01 21.13 56.18 21.13C55.62 21.13 55.17 21.41 55.17 22.06C55.17 24.29 60.56 24.54 60.56 27.98C60.56 30.09 58.83 31.44 55.61 31.44C54.2 31.44 54.02 31 51.56 31L51.38 27.4H51.54C51.98 29.37 53.57 31.24 55.36 31.24C56.17 31.24 56.61 30.84 56.61 30.21C56.61 27.9 51.34 27.53 51.34 24.21C51.34 22.14 53.21 20.97 56.01 20.97C57.42 20.97 58.2 21.43 59.77 21.43L59.66 24.49Z" fill="white"/>
</svg>
